# num_slices: 10
# num_stacks: 10

v 1.0 0.0 0.0
v 0.8090169943749475 0.5877852522924731 0.0
v 0.30901699437494745 0.9510565162951535 0.0
v -0.30901699437494756 0.9510565162951535 0.0
v -0.8090169943749473 0.5877852522924732 0.0
v -1.0 1.2246467991473532e-16 0.0
v -0.8090169943749472 -0.5877852522924734 0.0
v -0.30901699437494756 -0.9510565162951535 0.0
v 0.30901699437494723 -0.9510565162951536 0.0
v 0.8090169943749473 -0.5877852522924734 0.0
v 1.0 0.0 0.1111111111111111
v 0.8090169943749475 0.5877852522924731 0.1111111111111111
v 0.30901699437494745 0.9510565162951535 0.1111111111111111
v -0.30901699437494756 0.9510565162951535 0.1111111111111111
v -0.8090169943749473 0.5877852522924732 0.1111111111111111
v -1.0 1.2246467991473532e-16 0.1111111111111111
v -0.8090169943749472 -0.5877852522924734 0.1111111111111111
v -0.30901699437494756 -0.9510565162951535 0.1111111111111111
v 0.30901699437494723 -0.9510565162951536 0.1111111111111111
v 0.8090169943749473 -0.5877852522924734 0.1111111111111111
v 1.0 0.0 0.2222222222222222
v 0.8090169943749475 0.5877852522924731 0.2222222222222222
v 0.30901699437494745 0.9510565162951535 0.2222222222222222
v -0.30901699437494756 0.9510565162951535 0.2222222222222222
v -0.8090169943749473 0.5877852522924732 0.2222222222222222
v -1.0 1.2246467991473532e-16 0.2222222222222222
v -0.8090169943749472 -0.5877852522924734 0.2222222222222222
v -0.30901699437494756 -0.9510565162951535 0.2222222222222222
v 0.30901699437494723 -0.9510565162951536 0.2222222222222222
v 0.8090169943749473 -0.5877852522924734 0.2222222222222222
v 1.0 0.0 0.3333333333333333
v 0.8090169943749475 0.5877852522924731 0.3333333333333333
v 0.30901699437494745 0.9510565162951535 0.3333333333333333
v -0.30901699437494756 0.9510565162951535 0.3333333333333333
v -0.8090169943749473 0.5877852522924732 0.3333333333333333
v -1.0 1.2246467991473532e-16 0.3333333333333333
v -0.8090169943749472 -0.5877852522924734 0.3333333333333333
v -0.30901699437494756 -0.9510565162951535 0.3333333333333333
v 0.30901699437494723 -0.9510565162951536 0.3333333333333333
v 0.8090169943749473 -0.5877852522924734 0.3333333333333333
v 1.0 0.0 0.4444444444444444
v 0.8090169943749475 0.5877852522924731 0.4444444444444444
v 0.30901699437494745 0.9510565162951535 0.4444444444444444
v -0.30901699437494756 0.9510565162951535 0.4444444444444444
v -0.8090169943749473 0.5877852522924732 0.4444444444444444
v -1.0 1.2246467991473532e-16 0.4444444444444444
v -0.8090169943749472 -0.5877852522924734 0.4444444444444444
v -0.30901699437494756 -0.9510565162951535 0.4444444444444444
v 0.30901699437494723 -0.9510565162951536 0.4444444444444444
v 0.8090169943749473 -0.5877852522924734 0.4444444444444444
v 1.0 0.0 0.5555555555555556
v 0.8090169943749475 0.5877852522924731 0.5555555555555556
v 0.30901699437494745 0.9510565162951535 0.5555555555555556
v -0.30901699437494756 0.9510565162951535 0.5555555555555556
v -0.8090169943749473 0.5877852522924732 0.5555555555555556
v -1.0 1.2246467991473532e-16 0.5555555555555556
v -0.8090169943749472 -0.5877852522924734 0.5555555555555556
v -0.30901699437494756 -0.9510565162951535 0.5555555555555556
v 0.30901699437494723 -0.9510565162951536 0.5555555555555556
v 0.8090169943749473 -0.5877852522924734 0.5555555555555556
v 1.0 0.0 0.6666666666666666
v 0.8090169943749475 0.5877852522924731 0.6666666666666666
v 0.30901699437494745 0.9510565162951535 0.6666666666666666
v -0.30901699437494756 0.9510565162951535 0.6666666666666666
v -0.8090169943749473 0.5877852522924732 0.6666666666666666
v -1.0 1.2246467991473532e-16 0.6666666666666666
v -0.8090169943749472 -0.5877852522924734 0.6666666666666666
v -0.30901699437494756 -0.9510565162951535 0.6666666666666666
v 0.30901699437494723 -0.9510565162951536 0.6666666666666666
v 0.8090169943749473 -0.5877852522924734 0.6666666666666666
v 1.0 0.0 0.7777777777777777
v 0.8090169943749475 0.5877852522924731 0.7777777777777777
v 0.30901699437494745 0.9510565162951535 0.7777777777777777
v -0.30901699437494756 0.9510565162951535 0.7777777777777777
v -0.8090169943749473 0.5877852522924732 0.7777777777777777
v -1.0 1.2246467991473532e-16 0.7777777777777777
v -0.8090169943749472 -0.5877852522924734 0.7777777777777777
v -0.30901699437494756 -0.9510565162951535 0.7777777777777777
v 0.30901699437494723 -0.9510565162951536 0.7777777777777777
v 0.8090169943749473 -0.5877852522924734 0.7777777777777777
v 1.0 0.0 0.8888888888888888
v 0.8090169943749475 0.5877852522924731 0.8888888888888888
v 0.30901699437494745 0.9510565162951535 0.8888888888888888
v -0.30901699437494756 0.9510565162951535 0.8888888888888888
v -0.8090169943749473 0.5877852522924732 0.8888888888888888
v -1.0 1.2246467991473532e-16 0.8888888888888888
v -0.8090169943749472 -0.5877852522924734 0.8888888888888888
v -0.30901699437494756 -0.9510565162951535 0.8888888888888888
v 0.30901699437494723 -0.9510565162951536 0.8888888888888888
v 0.8090169943749473 -0.5877852522924734 0.8888888888888888
v 1.0 0.0 1.0
v 0.8090169943749475 0.5877852522924731 1.0
v 0.30901699437494745 0.9510565162951535 1.0
v -0.30901699437494756 0.9510565162951535 1.0
v -0.8090169943749473 0.5877852522924732 1.0
v -1.0 1.2246467991473532e-16 1.0
v -0.8090169943749472 -0.5877852522924734 1.0
v -0.30901699437494756 -0.9510565162951535 1.0
v 0.30901699437494723 -0.9510565162951536 1.0
v 0.8090169943749473 -0.5877852522924734 1.0

vt 0.0 0.0
vt 0.1 0.0
vt 0.2 0.0
vt 0.30000000000000004 0.0
vt 0.4 0.0
vt 0.5 0.0
vt 0.6000000000000001 0.0
vt 0.7000000000000001 0.0
vt 0.8 0.0
vt 0.9 0.0
vt 1.0 0.0
vt 0.0 0.1111111111111111
vt 0.1 0.1111111111111111
vt 0.2 0.1111111111111111
vt 0.30000000000000004 0.1111111111111111
vt 0.4 0.1111111111111111
vt 0.5 0.1111111111111111
vt 0.6000000000000001 0.1111111111111111
vt 0.7000000000000001 0.1111111111111111
vt 0.8 0.1111111111111111
vt 0.9 0.1111111111111111
vt 1.0 0.1111111111111111
vt 0.0 0.2222222222222222
vt 0.1 0.2222222222222222
vt 0.2 0.2222222222222222
vt 0.30000000000000004 0.2222222222222222
vt 0.4 0.2222222222222222
vt 0.5 0.2222222222222222
vt 0.6000000000000001 0.2222222222222222
vt 0.7000000000000001 0.2222222222222222
vt 0.8 0.2222222222222222
vt 0.9 0.2222222222222222
vt 1.0 0.2222222222222222
vt 0.0 0.3333333333333333
vt 0.1 0.3333333333333333
vt 0.2 0.3333333333333333
vt 0.30000000000000004 0.3333333333333333
vt 0.4 0.3333333333333333
vt 0.5 0.3333333333333333
vt 0.6000000000000001 0.3333333333333333
vt 0.7000000000000001 0.3333333333333333
vt 0.8 0.3333333333333333
vt 0.9 0.3333333333333333
vt 1.0 0.3333333333333333
vt 0.0 0.4444444444444444
vt 0.1 0.4444444444444444
vt 0.2 0.4444444444444444
vt 0.30000000000000004 0.4444444444444444
vt 0.4 0.4444444444444444
vt 0.5 0.4444444444444444
vt 0.6000000000000001 0.4444444444444444
vt 0.7000000000000001 0.4444444444444444
vt 0.8 0.4444444444444444
vt 0.9 0.4444444444444444
vt 1.0 0.4444444444444444
vt 0.0 0.5555555555555556
vt 0.1 0.5555555555555556
vt 0.2 0.5555555555555556
vt 0.30000000000000004 0.5555555555555556
vt 0.4 0.5555555555555556
vt 0.5 0.5555555555555556
vt 0.6000000000000001 0.5555555555555556
vt 0.7000000000000001 0.5555555555555556
vt 0.8 0.5555555555555556
vt 0.9 0.5555555555555556
vt 1.0 0.5555555555555556
vt 0.0 0.6666666666666666
vt 0.1 0.6666666666666666
vt 0.2 0.6666666666666666
vt 0.30000000000000004 0.6666666666666666
vt 0.4 0.6666666666666666
vt 0.5 0.6666666666666666
vt 0.6000000000000001 0.6666666666666666
vt 0.7000000000000001 0.6666666666666666
vt 0.8 0.6666666666666666
vt 0.9 0.6666666666666666
vt 1.0 0.6666666666666666
vt 0.0 0.7777777777777777
vt 0.1 0.7777777777777777
vt 0.2 0.7777777777777777
vt 0.30000000000000004 0.7777777777777777
vt 0.4 0.7777777777777777
vt 0.5 0.7777777777777777
vt 0.6000000000000001 0.7777777777777777
vt 0.7000000000000001 0.7777777777777777
vt 0.8 0.7777777777777777
vt 0.9 0.7777777777777777
vt 1.0 0.7777777777777777
vt 0.0 0.8888888888888888
vt 0.1 0.8888888888888888
vt 0.2 0.8888888888888888
vt 0.30000000000000004 0.8888888888888888
vt 0.4 0.8888888888888888
vt 0.5 0.8888888888888888
vt 0.6000000000000001 0.8888888888888888
vt 0.7000000000000001 0.8888888888888888
vt 0.8 0.8888888888888888
vt 0.9 0.8888888888888888
vt 1.0 0.8888888888888888
vt 0.0 1.0
vt 0.1 1.0
vt 0.2 1.0
vt 0.30000000000000004 1.0
vt 0.4 1.0
vt 0.5 1.0
vt 0.6000000000000001 1.0
vt 0.7000000000000001 1.0
vt 0.8 1.0
vt 0.9 1.0
vt 1.0 1.0

vn 1.0 0.0 0.0
vn 0.8090169943749475 0.5877852522924731 0.0
vn 0.30901699437494745 0.9510565162951535 0.0
vn -0.30901699437494756 0.9510565162951535 0.0
vn -0.8090169943749473 0.5877852522924732 0.0
vn -1.0 1.2246467991473532e-16 0.0
vn -0.8090169943749472 -0.5877852522924734 0.0
vn -0.30901699437494756 -0.9510565162951535 0.0
vn 0.30901699437494723 -0.9510565162951536 0.0
vn 0.8090169943749473 -0.5877852522924734 0.0

f 1/1/1 2/12/1 12/13/2
f 1/1/1 12/13/2 11/2/2
f 2/2/2 3/13/2 13/14/3
f 2/2/2 13/14/3 12/3/3
f 3/3/3 4/14/3 14/15/4
f 3/3/3 14/15/4 13/4/4
f 4/4/4 5/15/4 15/16/5
f 4/4/4 15/16/5 14/5/5
f 5/5/5 6/16/5 16/17/6
f 5/5/5 16/17/6 15/6/6
f 6/6/6 7/17/6 17/18/7
f 6/6/6 17/18/7 16/7/7
f 7/7/7 8/18/7 18/19/8
f 7/7/7 18/19/8 17/8/8
f 8/8/8 9/19/8 19/20/9
f 8/8/8 19/20/9 18/9/9
f 9/9/9 10/20/9 20/21/10
f 9/9/9 20/21/10 19/10/10
f 10/10/10 1/21/10 11/22/1
f 10/10/10 11/22/1 20/11/1
f 11/12/1 12/23/1 22/24/2
f 11/12/1 22/24/2 21/13/2
f 12/13/2 13/24/2 23/25/3
f 12/13/2 23/25/3 22/14/3
f 13/14/3 14/25/3 24/26/4
f 13/14/3 24/26/4 23/15/4
f 14/15/4 15/26/4 25/27/5
f 14/15/4 25/27/5 24/16/5
f 15/16/5 16/27/5 26/28/6
f 15/16/5 26/28/6 25/17/6
f 16/17/6 17/28/6 27/29/7
f 16/17/6 27/29/7 26/18/7
f 17/18/7 18/29/7 28/30/8
f 17/18/7 28/30/8 27/19/8
f 18/19/8 19/30/8 29/31/9
f 18/19/8 29/31/9 28/20/9
f 19/20/9 20/31/9 30/32/10
f 19/20/9 30/32/10 29/21/10
f 20/21/10 11/32/10 21/33/1
f 20/21/10 21/33/1 30/22/1
f 21/23/1 22/34/1 32/35/2
f 21/23/1 32/35/2 31/24/2
f 22/24/2 23/35/2 33/36/3
f 22/24/2 33/36/3 32/25/3
f 23/25/3 24/36/3 34/37/4
f 23/25/3 34/37/4 33/26/4
f 24/26/4 25/37/4 35/38/5
f 24/26/4 35/38/5 34/27/5
f 25/27/5 26/38/5 36/39/6
f 25/27/5 36/39/6 35/28/6
f 26/28/6 27/39/6 37/40/7
f 26/28/6 37/40/7 36/29/7
f 27/29/7 28/40/7 38/41/8
f 27/29/7 38/41/8 37/30/8
f 28/30/8 29/41/8 39/42/9
f 28/30/8 39/42/9 38/31/9
f 29/31/9 30/42/9 40/43/10
f 29/31/9 40/43/10 39/32/10
f 30/32/10 21/43/10 31/44/1
f 30/32/10 31/44/1 40/33/1
f 31/34/1 32/45/1 42/46/2
f 31/34/1 42/46/2 41/35/2
f 32/35/2 33/46/2 43/47/3
f 32/35/2 43/47/3 42/36/3
f 33/36/3 34/47/3 44/48/4
f 33/36/3 44/48/4 43/37/4
f 34/37/4 35/48/4 45/49/5
f 34/37/4 45/49/5 44/38/5
f 35/38/5 36/49/5 46/50/6
f 35/38/5 46/50/6 45/39/6
f 36/39/6 37/50/6 47/51/7
f 36/39/6 47/51/7 46/40/7
f 37/40/7 38/51/7 48/52/8
f 37/40/7 48/52/8 47/41/8
f 38/41/8 39/52/8 49/53/9
f 38/41/8 49/53/9 48/42/9
f 39/42/9 40/53/9 50/54/10
f 39/42/9 50/54/10 49/43/10
f 40/43/10 31/54/10 41/55/1
f 40/43/10 41/55/1 50/44/1
f 41/45/1 42/56/1 52/57/2
f 41/45/1 52/57/2 51/46/2
f 42/46/2 43/57/2 53/58/3
f 42/46/2 53/58/3 52/47/3
f 43/47/3 44/58/3 54/59/4
f 43/47/3 54/59/4 53/48/4
f 44/48/4 45/59/4 55/60/5
f 44/48/4 55/60/5 54/49/5
f 45/49/5 46/60/5 56/61/6
f 45/49/5 56/61/6 55/50/6
f 46/50/6 47/61/6 57/62/7
f 46/50/6 57/62/7 56/51/7
f 47/51/7 48/62/7 58/63/8
f 47/51/7 58/63/8 57/52/8
f 48/52/8 49/63/8 59/64/9
f 48/52/8 59/64/9 58/53/9
f 49/53/9 50/64/9 60/65/10
f 49/53/9 60/65/10 59/54/10
f 50/54/10 41/65/10 51/66/1
f 50/54/10 51/66/1 60/55/1
f 51/56/1 52/67/1 62/68/2
f 51/56/1 62/68/2 61/57/2
f 52/57/2 53/68/2 63/69/3
f 52/57/2 63/69/3 62/58/3
f 53/58/3 54/69/3 64/70/4
f 53/58/3 64/70/4 63/59/4
f 54/59/4 55/70/4 65/71/5
f 54/59/4 65/71/5 64/60/5
f 55/60/5 56/71/5 66/72/6
f 55/60/5 66/72/6 65/61/6
f 56/61/6 57/72/6 67/73/7
f 56/61/6 67/73/7 66/62/7
f 57/62/7 58/73/7 68/74/8
f 57/62/7 68/74/8 67/63/8
f 58/63/8 59/74/8 69/75/9
f 58/63/8 69/75/9 68/64/9
f 59/64/9 60/75/9 70/76/10
f 59/64/9 70/76/10 69/65/10
f 60/65/10 51/76/10 61/77/1
f 60/65/10 61/77/1 70/66/1
f 61/67/1 62/78/1 72/79/2
f 61/67/1 72/79/2 71/68/2
f 62/68/2 63/79/2 73/80/3
f 62/68/2 73/80/3 72/69/3
f 63/69/3 64/80/3 74/81/4
f 63/69/3 74/81/4 73/70/4
f 64/70/4 65/81/4 75/82/5
f 64/70/4 75/82/5 74/71/5
f 65/71/5 66/82/5 76/83/6
f 65/71/5 76/83/6 75/72/6
f 66/72/6 67/83/6 77/84/7
f 66/72/6 77/84/7 76/73/7
f 67/73/7 68/84/7 78/85/8
f 67/73/7 78/85/8 77/74/8
f 68/74/8 69/85/8 79/86/9
f 68/74/8 79/86/9 78/75/9
f 69/75/9 70/86/9 80/87/10
f 69/75/9 80/87/10 79/76/10
f 70/76/10 61/87/10 71/88/1
f 70/76/10 71/88/1 80/77/1
f 71/78/1 72/89/1 82/90/2
f 71/78/1 82/90/2 81/79/2
f 72/79/2 73/90/2 83/91/3
f 72/79/2 83/91/3 82/80/3
f 73/80/3 74/91/3 84/92/4
f 73/80/3 84/92/4 83/81/4
f 74/81/4 75/92/4 85/93/5
f 74/81/4 85/93/5 84/82/5
f 75/82/5 76/93/5 86/94/6
f 75/82/5 86/94/6 85/83/6
f 76/83/6 77/94/6 87/95/7
f 76/83/6 87/95/7 86/84/7
f 77/84/7 78/95/7 88/96/8
f 77/84/7 88/96/8 87/85/8
f 78/85/8 79/96/8 89/97/9
f 78/85/8 89/97/9 88/86/9
f 79/86/9 80/97/9 90/98/10
f 79/86/9 90/98/10 89/87/10
f 80/87/10 71/98/10 81/99/1
f 80/87/10 81/99/1 90/88/1
f 81/89/1 82/100/1 92/101/2
f 81/89/1 92/101/2 91/90/2
f 82/90/2 83/101/2 93/102/3
f 82/90/2 93/102/3 92/91/3
f 83/91/3 84/102/3 94/103/4
f 83/91/3 94/103/4 93/92/4
f 84/92/4 85/103/4 95/104/5
f 84/92/4 95/104/5 94/93/5
f 85/93/5 86/104/5 96/105/6
f 85/93/5 96/105/6 95/94/6
f 86/94/6 87/105/6 97/106/7
f 86/94/6 97/106/7 96/95/7
f 87/95/7 88/106/7 98/107/8
f 87/95/7 98/107/8 97/96/8
f 88/96/8 89/107/8 99/108/9
f 88/96/8 99/108/9 98/97/9
f 89/97/9 90/108/9 100/109/10
f 89/97/9 100/109/10 99/98/10
f 90/98/10 81/109/10 91/110/1
f 90/98/10 91/110/1 100/99/1
